<mxfile host="www.draw.io" modified="2020-01-22T11:24:39.496Z" agent="Mozilla/5.0 (Windows NT 10.0; Win64; x64) AppleWebKit/537.36 (KHTML, like Gecko) Chrome/79.0.3945.117 Safari/537.36" etag="WPlWZptsHVe6xSvw6p4r" version="12.5.5" type="github">
  <diagram id="C5RBs43oDa-KdzZeNtuy" name="Page-1">
    <mxGraphModel dx="1422" dy="762" grid="1" gridSize="16" guides="1" tooltips="1" connect="1" arrows="1" fold="1" page="1" pageScale="1" pageWidth="827" pageHeight="1169" math="0" shadow="0">
      <root>
        <mxCell id="WIyWlLk6GJQsqaUBKTNV-0"/>
        <mxCell id="WIyWlLk6GJQsqaUBKTNV-1" parent="WIyWlLk6GJQsqaUBKTNV-0"/>
        <mxCell id="Fv8nIN-60UwDxnUi9GbX-0" value="" style="verticalLabelPosition=bottom;verticalAlign=top;html=1;shadow=0;dashed=0;strokeWidth=1;shape=mxgraph.android.phone2;strokeColor=#c0c0c0;" vertex="1" parent="WIyWlLk6GJQsqaUBKTNV-1">
          <mxGeometry x="20" y="20" width="200" height="390" as="geometry"/>
        </mxCell>
        <mxCell id="Fv8nIN-60UwDxnUi9GbX-3" value="Normal" style="whiteSpace=wrap;html=1;shadow=0;dashed=0;fontSize=15;align=center;fillColor=#FFFFFF;strokeColor=#FFFFFF;fontColor=#4D4D4D;" vertex="1" parent="WIyWlLk6GJQsqaUBKTNV-1">
          <mxGeometry x="35.6" y="64" width="168.8" height="32" as="geometry"/>
        </mxCell>
        <mxCell id="Fv8nIN-60UwDxnUi9GbX-13" value="Item" style="strokeWidth=1;html=1;shadow=0;dashed=0;shape=mxgraph.android.spinner2;align=center;fillColor=#ffffff;strokeColor=none;verticalAlign=bottom;fontSize=8;gradientColor=none;" vertex="1" parent="WIyWlLk6GJQsqaUBKTNV-1">
          <mxGeometry x="35.6" y="144" width="172.4" height="28" as="geometry"/>
        </mxCell>
        <mxCell id="Fv8nIN-60UwDxnUi9GbX-14" value="Item" style="strokeWidth=1;html=1;shadow=0;dashed=0;shape=mxgraph.android.spinner2;align=center;fillColor=#999999;strokeColor=#999999;verticalAlign=bottom;fontSize=8;" vertex="1" parent="WIyWlLk6GJQsqaUBKTNV-1">
          <mxGeometry x="35.6" y="184" width="172.4" height="10" as="geometry"/>
        </mxCell>
        <mxCell id="Fv8nIN-60UwDxnUi9GbX-15" value="Item" style="strokeWidth=1;html=1;shadow=0;dashed=0;shape=mxgraph.android.spinner2;align=center;fillColor=#999999;strokeColor=#999999;verticalAlign=bottom;fontSize=8;" vertex="1" parent="WIyWlLk6GJQsqaUBKTNV-1">
          <mxGeometry x="35.599999999999994" y="210" width="172.4" height="10" as="geometry"/>
        </mxCell>
      </root>
    </mxGraphModel>
  </diagram>
</mxfile>
